<?xml version="1.0" encoding="UTF-8"?>
<!DOCTYPE svg PUBLIC "-//W3C//DTD SVG 1.1//EN" "http://www.w3.org/Graphics/SVG/1.1/DTD/svg11.dtd">
<!-- Creator: CorelDRAW -->
<svg xmlns="http://www.w3.org/2000/svg" xml:space="preserve" width="8.4666mm" height="8.4666mm" version="1.1" style="shape-rendering:geometricPrecision; text-rendering:geometricPrecision; image-rendering:optimizeQuality; fill-rule:evenodd; clip-rule:evenodd"
viewBox="0 0 846.66 846.66"
 xmlns:xlink="http://www.w3.org/1999/xlink"
 xmlns:xodm="http://www.corel.com/coreldraw/odm/2003">
 <defs>
  <style type="text/css">
   <![CDATA[
    .fil0 {fill:none}
    .fil1 {fill:#39393A;fill-rule:nonzero}
    .fil2 {fill:white;fill-rule:nonzero}
   ]]>
  </style>
 </defs>
 <g id="Layer_x0020_1">
  <metadata id="CorelCorpID_0Corel-Layer"/>
  <rect class="fil0" width="846.66" height="846.66"/>
  <g id="_105553219366912">
   <path class="fil1" d="M787.31 423.32c0,201.02 -162.97,363.98 -363.98,363.98 -201.02,0 -363.98,-162.96 -363.98,-363.98 0,-201.02 162.96,-363.96 363.98,-363.96 201.01,0 363.98,162.94 363.98,363.96z"/>
   <path class="fil2" d="M521.59 449.72l11.73 -76.42 -73.33 0 0 -49.61c0,-20.9 10.25,-41.28 43.09,-41.28l33.33 0 0 -65.07c0,0 -30.25,-5.15 -59.18,-5.15 -60.39,0 -99.86,36.59 -99.86,102.86l0 58.25 -67.13 0 0 76.42 67.13 0 0 184.76 82.62 0 0 -184.76 61.6 0z"/>
  </g>
 </g>
</svg>
