<?xml version="1.0" encoding="UTF-8"?>
<!DOCTYPE svg PUBLIC "-//W3C//DTD SVG 1.1//EN" "http://www.w3.org/Graphics/SVG/1.1/DTD/svg11.dtd">
<!-- Creator: CorelDRAW -->
<svg xmlns="http://www.w3.org/2000/svg" xml:space="preserve" width="8.4666mm" height="8.4666mm" version="1.1" style="shape-rendering:geometricPrecision; text-rendering:geometricPrecision; image-rendering:optimizeQuality; fill-rule:evenodd; clip-rule:evenodd"
viewBox="0 0 846.66 846.66"
 xmlns:xlink="http://www.w3.org/1999/xlink"
 xmlns:xodm="http://www.corel.com/coreldraw/odm/2003">
 <defs>
  <style type="text/css">
   <![CDATA[
    .fil0 {fill:none}
    .fil1 {fill:#39393A;fill-rule:nonzero}
    .fil2 {fill:white;fill-rule:nonzero}
   ]]>
  </style>
 </defs>
 <g id="Layer_x0020_1">
  <metadata id="CorelCorpID_0Corel-Layer"/>
  <rect class="fil0" width="846.66" height="846.66"/>
  <g id="_105553218533856">
   <path class="fil1" d="M787.31 423.32c0,201.02 -162.96,363.98 -363.98,363.98 -201.02,0 -363.98,-162.96 -363.98,-363.98 0,-201.02 162.96,-363.96 363.98,-363.96 201.02,0 363.98,162.94 363.98,363.96z"/>
   <path class="fil2" d="M535.12 287.58c-13.66,0 -24.74,11.09 -24.74,24.75 0,13.68 11.08,24.77 24.74,24.77 13.68,0 24.77,-11.09 24.77,-24.77 0,-13.66 -11.09,-24.75 -24.77,-24.75z"/>
   <path class="fil2" d="M425.06 489.94c-36.73,0 -66.62,-29.88 -66.62,-66.62 0,-36.73 29.89,-66.61 66.62,-66.61 36.74,0 66.61,29.88 66.61,66.61 0,36.74 -29.87,66.62 -66.61,66.62zm0 -170.61c-57.34,0 -104,46.65 -104,103.99 0,57.35 46.66,104 104,104 57.35,0 104,-46.65 104,-104 0,-57.34 -46.65,-103.99 -104,-103.99z"/>
   <path class="fil2" d="M339.03 251.91c-48.04,0 -87.12,39.08 -87.12,87.11l0 168.61c0,48.04 39.08,87.11 87.12,87.11l168.6 0c48.03,0 87.12,-39.07 87.12,-87.11l0 -168.61c0,-48.03 -39.09,-87.11 -87.12,-87.11l-168.6 0zm168.6 382.57l-168.6 0c-69.95,0 -126.85,-56.91 -126.85,-126.85l0 -168.61c0,-69.95 56.9,-126.83 126.85,-126.83l168.6 0c69.94,0 126.84,56.88 126.84,126.83l0 168.61c0,69.94 -56.9,126.85 -126.84,126.85z"/>
  </g>
 </g>
</svg>
