<?xml version="1.0" encoding="UTF-8"?>
<!DOCTYPE svg PUBLIC "-//W3C//DTD SVG 1.1//EN" "http://www.w3.org/Graphics/SVG/1.1/DTD/svg11.dtd">
<!-- Creator: CorelDRAW -->
<svg xmlns="http://www.w3.org/2000/svg" xml:space="preserve" width="8.4666mm" height="8.4666mm" version="1.1" style="shape-rendering:geometricPrecision; text-rendering:geometricPrecision; image-rendering:optimizeQuality; fill-rule:evenodd; clip-rule:evenodd"
viewBox="0 0 846.66 846.66"
 xmlns:xlink="http://www.w3.org/1999/xlink"
 xmlns:xodm="http://www.corel.com/coreldraw/odm/2003">
 <defs>
  <style type="text/css">
   <![CDATA[
    .fil0 {fill:none}
    .fil1 {fill:#39393A}
    .fil2 {fill:white}
   ]]>
  </style>
 </defs>
 <g id="Layer_x0020_1">
  <metadata id="CorelCorpID_0Corel-Layer"/>
  <rect class="fil0" width="846.66" height="846.66"/>
  <g id="_105553217215616">
   <path class="fil1" d="M423.33 59.35c-201.02,0 -363.98,162.97 -363.98,363.98 0,201.02 162.96,363.98 363.98,363.98 201.02,0 363.98,-162.96 363.98,-363.98 0,-201.01 -162.96,-363.98 -363.98,-363.98z"/>
   <path class="fil2" d="M423.33 225.2c109.42,0 198.14,88.71 198.14,198.13 0,109.43 -88.72,198.14 -198.14,198.14 -109.42,0 -198.14,-88.71 -198.14,-198.14 0,-109.42 88.72,-198.13 198.14,-198.13zm-156.14 252.64l0.28 0.78c0.19,0.55 0.39,1.11 0.6,1.64 0.21,0.6 0.43,1.18 0.65,1.76 0.22,0.59 0.44,1.18 0.67,1.74l0.69 1.75c0.22,0.56 0.45,1.12 0.69,1.65l0.72 1.7 0.75 1.68 0.8 1.78c0.25,0.57 0.51,1.13 0.78,1.68l0.78 1.6c0.26,0.56 0.53,1.11 0.81,1.65l0.86 1.7c0.28,0.56 0.56,1.09 0.85,1.65l0.77 1.41 0.99 1.81 0.92 1.63c0.29,0.5 0.58,1 0.88,1.51l0.97 1.63c0.32,0.53 0.64,1.07 0.98,1.6l0.85 1.35 1.09 1.7 1.01 1.55c0.33,0.5 0.66,0.98 1,1.49l1 1.46 1.2 1.68c0.31,0.46 0.62,0.88 0.94,1.31 0.39,0.53 0.77,1.06 1.17,1.59l1.04 1.36c0.39,0.53 0.8,1.04 1.19,1.54 0.35,0.46 0.69,0.88 1.05,1.31l1.19 1.49 1.11 1.33 1.21 1.43 1.33 1.55c0.35,0.4 0.73,0.82 1.09,1.22 0.42,0.46 0.82,0.9 1.24,1.36l1.22 1.33 1.28 1.36 1.32 1.35c0.4,0.43 0.81,0.83 1.22,1.23l1.32 1.33 1.26 1.2 1.47 1.38c0.39,0.41 0.8,0.77 1.21,1.15l1.52 1.38c0.41,0.35 0.81,0.73 1.22,1.07 0.45,0.39 0.91,0.8 1.38,1.19l1.43 1.23 1.45 1.2c0.46,0.37 0.91,0.75 1.37,1.09l1.48 1.19c0.49,0.38 0.99,0.75 1.49,1.15l1.37 1.04c0.51,0.37 1.02,0.75 1.53,1.12l1.36 0.98 1.58 1.12 1.56 1.09c0.5,0.31 1,0.67 1.51,0.98l1.39 0.94 1.71 1.09 1.47 0.93c0.54,0.35 1.08,0.67 1.63,0.98l1.61 0.97c0.5,0.31 1.01,0.6 1.52,0.87l1.62 0.94c0.56,0.31 1.12,0.6 1.68,0.92l1.54 0.83c0.55,0.29 1.09,0.55 1.64,0.85l1.71 0.85c0.54,0.3 1.09,0.56 1.64,0.83l1.62 0.77c0.55,0.27 1.11,0.53 1.66,0.77l1.65 0.75 1.83 0.8c0.53,0.24 1.07,0.48 1.61,0.68 0.58,0.24 1.15,0.51 1.73,0.72l1.75 0.73c0.56,0.21 1.12,0.42 1.68,0.63l1.88 0.7c0.52,0.21 1.05,0.39 1.58,0.58l0.78 0.26c-12.83,-23.53 -20.63,-52.67 -25.03,-76.59 -23.91,-4.4 -53.06,-12.2 -76.6,-25.03zm110.63 29.76c4.1,19.78 10.28,40.52 19.58,57.34 4.68,8.43 14.74,23.73 25.93,23.73 11.18,0 21.25,-15.3 25.92,-23.73 9.31,-16.82 15.49,-37.56 19.59,-57.34 -15.13,1.46 -30.34,2.18 -45.51,2.18 -15.18,0 -30.39,-0.72 -45.51,-2.18zm125.05 -4.73c-4.4,23.92 -12.2,53.06 -25.03,76.59l0.78 -0.26c0.53,-0.19 1.05,-0.37 1.58,-0.58l1.88 -0.7c0.56,-0.21 1.12,-0.42 1.67,-0.63l1.75 -0.73c0.56,-0.21 1.11,-0.45 1.67,-0.66l1.69 -0.74 1.69 -0.72 1.77 -0.83c0.56,-0.24 1.11,-0.5 1.67,-0.77l1.62 -0.77c0.55,-0.27 1.11,-0.53 1.65,-0.83l1.69 -0.85c0.55,-0.3 1.1,-0.56 1.65,-0.85l1.54 -0.83c0.56,-0.32 1.13,-0.61 1.68,-0.92l1.62 -0.94c0.51,-0.27 1.02,-0.56 1.52,-0.87l1.61 -0.97c0.55,-0.31 1.09,-0.63 1.62,-0.98l1.36 -0.85 1.7 -1.09 1.53 -1.02c0.5,-0.31 1,-0.67 1.5,-0.98l1.45 -1.02 1.57 -1.11 1.49 -1.06c0.5,-0.37 1.01,-0.75 1.51,-1.12l1.39 -1.04c0.49,-0.4 0.98,-0.77 1.47,-1.15l1.48 -1.19c0.47,-0.34 0.92,-0.72 1.38,-1.09l1.34 -1.13 1.42 -1.19 1.54 -1.33c0.41,-0.38 0.83,-0.74 1.23,-1.11 0.46,-0.41 0.92,-0.81 1.38,-1.23l1.31 -1.23 1.36 -1.28 1.36 -1.3c0.42,-0.42 0.82,-0.82 1.23,-1.22l1.31 -1.34 1.22 -1.24 1.28 -1.36 1.23 -1.34 1.28 -1.4 1.21 -1.39c0.4,-0.43 0.78,-0.88 1.16,-1.33l1.23 -1.44 1.1 -1.33 1.2 -1.49 1.17 -1.46c0.39,-0.48 0.78,-0.99 1.15,-1.49l1.04 -1.36c0.39,-0.51 0.76,-1.04 1.14,-1.54l0.97 -1.36 1.13 -1.57 1.07 -1.57c0.34,-0.51 0.67,-0.99 1.01,-1.49l0.92 -1.41 1.1 -1.71 0.92 -1.48c0.34,-0.53 0.66,-1.07 0.99,-1.6l0.96 -1.63c0.3,-0.51 0.59,-1.01 0.88,-1.51l0.85 -1.49 1 -1.81 0.82 -1.55c0.3,-0.56 0.58,-1.09 0.86,-1.65l0.86 -1.7c0.28,-0.54 0.56,-1.09 0.81,-1.65l0.78 -1.6c0.28,-0.55 0.52,-1.11 0.78,-1.68l0.74 -1.62 0.8 -1.84c0.24,-0.53 0.47,-1.09 0.7,-1.62 0.24,-0.58 0.48,-1.14 0.72,-1.73l0.69 -1.75c0.22,-0.56 0.44,-1.13 0.65,-1.69l0.69 -1.86c0.2,-0.53 0.4,-1.06 0.58,-1.59l0.27 -0.78c-23.53,12.83 -52.68,20.63 -76.59,25.03zm76.59 -134.04l-0.27 -0.78c-0.19,-0.55 -0.4,-1.11 -0.6,-1.68 -0.21,-0.58 -0.43,-1.14 -0.65,-1.72 -0.22,-0.59 -0.44,-1.18 -0.67,-1.74l-0.69 -1.75c-0.23,-0.56 -0.46,-1.12 -0.69,-1.65l-0.73 -1.7 -0.74 -1.69 -0.8 -1.77c-0.26,-0.57 -0.5,-1.13 -0.78,-1.68l-0.78 -1.62c-0.25,-0.54 -0.53,-1.09 -0.81,-1.65l-0.86 -1.68c-0.28,-0.56 -0.56,-1.12 -0.86,-1.65l-0.76 -1.41 -0.99 -1.81 -0.92 -1.63c-0.29,-0.51 -0.58,-1 -0.88,-1.51l-0.96 -1.63c-0.33,-0.53 -0.65,-1.07 -0.99,-1.62l-0.84 -1.33 -1.1 -1.7 -1 -1.55c-0.34,-0.5 -0.67,-1.01 -1.01,-1.49l-1.01 -1.47 -1.19 -1.67c-0.31,-0.46 -0.63,-0.88 -0.94,-1.31 -0.39,-0.53 -0.77,-1.06 -1.17,-1.59l-1.04 -1.36c-0.39,-0.53 -0.8,-1.04 -1.19,-1.54 -0.35,-0.46 -0.69,-0.88 -1.04,-1.33l-1.21 -1.47 -1.1 -1.36 -1.21 -1.4 -1.33 -1.55c-0.36,-0.4 -0.73,-0.82 -1.1,-1.22 -0.41,-0.46 -0.81,-0.94 -1.24,-1.36l-1.21 -1.33 -1.28 -1.36 -1.32 -1.36c-0.41,-0.42 -0.81,-0.83 -1.22,-1.22l-1.32 -1.33 -1.27 -1.23 -1.45 -1.35c-0.41,-0.41 -0.81,-0.77 -1.22,-1.15l-1.52 -1.38c-0.4,-0.35 -0.82,-0.73 -1.23,-1.07 -0.45,-0.39 -0.91,-0.8 -1.37,-1.19l-1.44 -1.23 -1.44 -1.2c-0.46,-0.37 -0.91,-0.75 -1.38,-1.12l-1.48 -1.16c-0.49,-0.38 -0.98,-0.75 -1.47,-1.15l-1.39 -1.04c-0.5,-0.37 -1.01,-0.75 -1.51,-1.12l-1.37 -0.98 -1.58 -1.12 -1.56 -1.09c-0.5,-0.33 -1,-0.67 -1.5,-1.01l-1.4 -0.91 -1.71 -1.12 -1.48 -0.9c-0.53,-0.35 -1.07,-0.67 -1.62,-0.98l-1.61 -0.97c-0.5,-0.31 -1.01,-0.6 -1.52,-0.87l-1.62 -0.94c-0.55,-0.31 -1.12,-0.61 -1.68,-0.92l-1.54 -0.83c-0.55,-0.3 -1.1,-0.55 -1.65,-0.86l-1.69 -0.84c-0.54,-0.3 -1.1,-0.56 -1.65,-0.83l-1.62 -0.77c-0.56,-0.27 -1.11,-0.53 -1.67,-0.77l-1.63 -0.75 -1.83 -0.82c-0.55,-0.22 -1.08,-0.46 -1.62,-0.66 -0.58,-0.27 -1.16,-0.51 -1.74,-0.72l-1.75 -0.73c-0.55,-0.21 -1.11,-0.43 -1.67,-0.63l-1.88 -0.7c-0.53,-0.21 -1.05,-0.4 -1.58,-0.58l-0.78 -0.26c12.83,23.53 20.63,52.67 25.03,76.59 23.91,4.4 53.06,12.2 76.59,25.03zm-110.62 -29.76c-4.1,-19.78 -10.28,-40.52 -19.59,-57.34 -4.67,-8.43 -14.74,-23.73 -25.92,-23.73 -11.19,0 -21.25,15.3 -25.93,23.73 -9.3,16.82 -15.48,37.56 -19.58,57.34 15.12,-1.5 30.33,-2.18 45.51,-2.18 15.17,0 30.38,0.68 45.51,2.18zm-125.05 4.73c4.4,-23.92 12.2,-53.06 25.03,-76.59l-0.78 0.26c-0.53,0.18 -1.06,0.37 -1.58,0.58l-1.88 0.7c-0.56,0.2 -1.12,0.42 -1.68,0.63l-1.75 0.73c-0.55,0.21 -1.11,0.42 -1.66,0.66l-1.68 0.72 -1.7 0.74 -1.78 0.83c-0.55,0.24 -1.11,0.5 -1.66,0.77l-1.62 0.77c-0.55,0.27 -1.1,0.53 -1.64,0.83l-1.71 0.84c-0.55,0.31 -1.09,0.56 -1.64,0.86l-1.54 0.83c-0.56,0.31 -1.12,0.61 -1.68,0.92l-1.62 0.94c-0.51,0.27 -1.02,0.56 -1.52,0.87l-1.61 0.97c-0.55,0.31 -1.09,0.63 -1.63,0.98l-1.35 0.85 -1.71 1.09 -1.51 0.99c-0.51,0.34 -1.01,0.68 -1.51,1.01l-1.46 1.01 -1.56 1.09 -1.48 1.09c-0.51,0.37 -1.02,0.75 -1.53,1.12l-1.37 1.04c-0.5,0.4 -1,0.77 -1.49,1.15l-1.48 1.16c-0.46,0.37 -0.91,0.75 -1.37,1.12l-1.34 1.13 -1.43 1.19 -1.53 1.33c-0.41,0.38 -0.83,0.74 -1.23,1.09 -0.47,0.43 -0.93,0.82 -1.37,1.25l-1.31 1.23 -1.37 1.28 -1.36 1.3c-0.41,0.42 -0.82,0.82 -1.22,1.22l-1.32 1.33 -1.22 1.25 -1.28 1.36 -1.24 1.33 -1.27 1.41 -1.22 1.39c-0.39,0.42 -0.77,0.88 -1.16,1.33l-1.21 1.44 -1.11 1.33 -1.2 1.49 -1.18 1.46c-0.38,0.48 -0.77,0.99 -1.14,1.49l-1.04 1.36c-0.38,0.5 -0.76,1.04 -1.13,1.54l-0.98 1.36 -1.12 1.57 -1.08 1.57c-0.34,0.48 -0.67,0.99 -1,1.49l-0.93 1.41 -1.1 1.71 -0.92 1.46c-0.34,0.55 -0.66,1.09 -0.98,1.62l-0.97 1.63c-0.3,0.51 -0.59,1 -0.88,1.51l-0.86 1.49 -0.98 1.81 -0.84 1.55c-0.29,0.53 -0.57,1.09 -0.85,1.65l-0.86 1.68c-0.28,0.56 -0.55,1.11 -0.81,1.65l-0.78 1.62c-0.27,0.55 -0.53,1.11 -0.78,1.68l-0.74 1.62 -0.81 1.84c-0.23,0.53 -0.46,1.09 -0.69,1.62 -0.24,0.58 -0.48,1.14 -0.72,1.73l-0.69 1.75c-0.22,0.56 -0.44,1.12 -0.65,1.69l-0.7 1.86c-0.2,0.53 -0.39,1.06 -0.57,1.59l-0.28 0.78c23.54,-12.83 52.69,-20.63 76.6,-25.03zm-4.73 125.05c-1.48,-15.12 -2.17,-30.34 -2.17,-45.52 0,-15.17 0.69,-30.39 2.17,-45.51 -19.79,4.1 -40.51,10.3 -57.33,19.59 -8.45,4.66 -23.74,14.74 -23.74,25.92 0,11.19 15.29,21.24 23.74,25.93 16.82,9.28 37.54,15.49 57.33,19.59zm33.45 -96.33c-1.93,16.85 -2.82,33.86 -2.82,50.81 0,16.96 0.89,33.97 2.82,50.82 16.85,1.93 33.87,2.82 50.82,2.82 16.95,0 33.96,-0.89 50.82,-2.82 1.93,-16.85 2.82,-33.86 2.82,-50.82 0,-16.95 -0.89,-33.96 -2.82,-50.81 -16.86,-1.93 -33.87,-2.82 -50.82,-2.82 -16.95,0 -33.97,0.89 -50.82,2.82zm135.09 5.3c1.48,15.12 2.17,30.34 2.17,45.51 0,15.18 -0.69,30.4 -2.17,45.52 19.78,-4.1 40.5,-10.31 57.33,-19.59 8.44,-4.69 23.74,-14.74 23.74,-25.93 0,-11.18 -15.3,-21.26 -23.74,-25.92 -16.83,-9.29 -37.55,-15.49 -57.33,-19.59z"/>
  </g>
 </g>
</svg>
