<?xml version="1.0" encoding="UTF-8"?>
<!DOCTYPE svg PUBLIC "-//W3C//DTD SVG 1.1//EN" "http://www.w3.org/Graphics/SVG/1.1/DTD/svg11.dtd">
<!-- Creator: CorelDRAW -->
<svg xmlns="http://www.w3.org/2000/svg" xml:space="preserve" width="8.4666mm" height="8.4666mm" version="1.1" style="shape-rendering:geometricPrecision; text-rendering:geometricPrecision; image-rendering:optimizeQuality; fill-rule:evenodd; clip-rule:evenodd"
viewBox="0 0 846.66 846.66"
 xmlns:xlink="http://www.w3.org/1999/xlink"
 xmlns:xodm="http://www.corel.com/coreldraw/odm/2003">
 <defs>
  <style type="text/css">
   <![CDATA[
    .fil0 {fill:none}
    .fil1 {fill:#39393A;fill-rule:nonzero}
    .fil2 {fill:white;fill-rule:nonzero}
   ]]>
  </style>
 </defs>
 <g id="Layer_x0020_1">
  <metadata id="CorelCorpID_0Corel-Layer"/>
  <rect class="fil0" width="846.66" height="846.66"/>
  <g id="_105553217223680">
   <g>
    <path class="fil1" d="M787.31 423.33c0,201.02 -162.95,363.98 -363.97,363.98 -201.02,0 -363.98,-162.96 -363.98,-363.98 0,-201.02 162.96,-363.98 363.98,-363.98 201.02,0 363.97,162.96 363.97,363.98z"/>
   </g>
   <path class="fil2" d="M496.3 431.73l-107.99 53.41c-4.23,2.29 -18.62,-0.77 -18.62,-5.58l0 -109.66c0,-4.88 14.51,-7.93 18.74,-5.51l103.37 56.22c4.33,2.47 8.88,8.74 4.5,11.12zm141.59 -64.43c0,-52 -42.16,-94.16 -94.15,-94.16l-240.79 0c-52.01,0 -94.16,42.16 -94.16,94.16l0 112.05c0,52 42.15,94.16 94.16,94.16l240.79 0c51.99,0 94.15,-42.16 94.15,-94.16l0 -112.05z"/>
  </g>
 </g>
</svg>
